<svg width="21" height="19" viewBox="0 0 21 19" fill="none" xmlns="http://www.w3.org/2000/svg">
<g clip-path="url(#clip0_3_17)">
<path d="M0.656189 1.18747C0.482141 1.18747 0.315221 1.25003 0.19215 1.36137C0.0690794 1.47272 -6.10352e-05 1.62375 -6.10352e-05 1.78122C-6.10352e-05 1.93869 0.0690794 2.08971 0.19215 2.20106C0.315221 2.31241 0.482141 2.37497 0.656189 2.37497H2.11306L2.63938 4.28328L4.6055 13.7655C4.63365 13.9015 4.71346 14.0244 4.83113 14.1129C4.94881 14.2014 5.09694 14.2498 5.24994 14.25H6.56244C5.86625 14.25 5.19857 14.5002 4.70628 14.9456C4.214 15.391 3.93744 15.9951 3.93744 16.625C3.93744 17.2549 4.214 17.8589 4.70628 18.3043C5.19857 18.7497 5.86625 19 6.56244 19C7.25863 19 7.92631 18.7497 8.4186 18.3043C8.91088 17.8589 9.18744 17.2549 9.18744 16.625C9.18744 15.9951 8.91088 15.391 8.4186 14.9456C7.92631 14.5002 7.25863 14.25 6.56244 14.25H15.7499C15.0537 14.25 14.3861 14.5002 13.8938 14.9456C13.4015 15.391 13.1249 15.9951 13.1249 16.625C13.1249 17.2549 13.4015 17.8589 13.8938 18.3043C14.3861 18.7497 15.0537 19 15.7499 19C16.4461 19 17.1138 18.7497 17.6061 18.3043C18.0984 17.8589 18.3749 17.2549 18.3749 16.625C18.3749 15.9951 18.0984 15.391 17.6061 14.9456C17.1138 14.5002 16.4461 14.25 15.7499 14.25H17.0624C17.2154 14.2498 17.3636 14.2014 17.4812 14.1129C17.5989 14.0244 17.6787 13.9015 17.7069 13.7655L19.6756 4.26547C19.6934 4.17978 19.69 4.0916 19.6658 4.00721C19.6416 3.92282 19.5972 3.84428 19.5357 3.77717C19.4742 3.71007 19.3971 3.65604 19.3099 3.61894C19.2227 3.58183 19.1276 3.56255 19.0312 3.56247H3.79306L3.2615 1.63753C3.22608 1.50903 3.14418 1.39492 3.02884 1.31337C2.91349 1.23182 2.77132 1.18751 2.62494 1.18747H0.656189ZM7.87494 16.625C7.87494 16.9399 7.73666 17.242 7.49052 17.4647C7.24438 17.6874 6.91054 17.8125 6.56244 17.8125C6.21434 17.8125 5.8805 17.6874 5.63436 17.4647C5.38822 17.242 5.24994 16.9399 5.24994 16.625C5.24994 16.31 5.38822 16.008 5.63436 15.7853C5.8805 15.5626 6.21434 15.4375 6.56244 15.4375C6.91054 15.4375 7.24438 15.5626 7.49052 15.7853C7.73666 16.008 7.87494 16.31 7.87494 16.625ZM17.0624 16.625C17.0624 16.9399 16.9242 17.242 16.678 17.4647C16.4319 17.6874 16.098 17.8125 15.7499 17.8125C15.4018 17.8125 15.068 17.6874 14.8219 17.4647C14.5757 17.242 14.4374 16.9399 14.4374 16.625C14.4374 16.31 14.5757 16.008 14.8219 15.7853C15.068 15.5626 15.4018 15.4375 15.7499 15.4375C16.098 15.4375 16.4319 15.5626 16.678 15.7853C16.9242 16.008 17.0624 16.31 17.0624 16.625ZM11.8124 6.53122V8.31247H13.7812C13.9552 8.31247 14.1222 8.37503 14.2452 8.48638C14.3683 8.59773 14.4374 8.74875 14.4374 8.90622C14.4374 9.06369 14.3683 9.21472 14.2452 9.32607C14.1222 9.43741 13.9552 9.49997 13.7812 9.49997H11.8124V11.2812C11.8124 11.4387 11.7433 11.5897 11.6202 11.7011C11.4972 11.8124 11.3302 11.875 11.1562 11.875C10.9821 11.875 10.8152 11.8124 10.6922 11.7011C10.5691 11.5897 10.4999 11.4387 10.4999 11.2812V9.49997H8.53119C8.35714 9.49997 8.19022 9.43741 8.06715 9.32607C7.94408 9.21472 7.87494 9.06369 7.87494 8.90622C7.87494 8.74875 7.94408 8.59773 8.06715 8.48638C8.19022 8.37503 8.35714 8.31247 8.53119 8.31247H10.4999V6.53122C10.4999 6.37375 10.5691 6.22273 10.6922 6.11138C10.8152 6.00003 10.9821 5.93747 11.1562 5.93747C11.3302 5.93747 11.4972 6.00003 11.6202 6.11138C11.7433 6.22273 11.8124 6.37375 11.8124 6.53122Z" fill="black"/>
</g>
<defs>
<clipPath id="clip0_3_17">
<rect width="21" height="19" fill="white"/>
</clipPath>
</defs>
</svg>
