<svg width="33" height="35" viewBox="0 0 33 35" fill="none" xmlns="http://www.w3.org/2000/svg">
<g clip-path="url(#clip0_18_28)">
<path d="M32.1522 17.2643C32.1522 8.28509 25.1466 1.01001 16.5 1.01001C7.85338 1.01001 0.847748 8.28509 0.847748 17.2643C0.847748 25.377 6.57154 32.1015 14.0543 33.3219V21.9629H10.0781V17.2643H14.0543V13.6831C14.0543 9.60968 16.3895 7.35965 19.9662 7.35965C21.6791 7.35965 23.4703 7.67687 23.4703 7.67687V11.6749H21.4961C19.5522 11.6749 18.9456 12.928 18.9456 14.2133V17.2643H23.2866L22.5924 21.9629H18.9456V33.3219C26.4284 32.1015 32.1522 25.377 32.1522 17.2643Z" fill="black"/>
</g>
<defs>
<clipPath id="clip0_18_28">
<rect width="32.3143" height="33.5571" fill="white" transform="translate(0.342896 0.485718)"/>
</clipPath>
</defs>
</svg>
