<svg width="37" height="38" viewBox="0 0 37 38" fill="none" xmlns="http://www.w3.org/2000/svg">
<path d="M28.6428 8.40481L26.7205 9.95838L18.5357 16.2503L10.351 9.89624L8.42872 8.34267C7.97586 7.95512 7.42305 7.71354 6.83876 7.64784C6.25448 7.58213 5.66439 7.69521 5.14162 7.97305C4.61885 8.25089 4.18637 8.68129 3.89774 9.21092C3.60912 9.74055 3.47704 10.3461 3.51788 10.9527V28.9586C3.51788 29.5189 3.73306 30.0563 4.11609 30.4526C4.49912 30.8488 5.01862 31.0714 5.56031 31.0714H10.351V19.0778L18.5357 25.432L26.7205 19.0778V31.0714H31.5112C32.0529 31.0714 32.5724 30.8488 32.9554 30.4526C33.3384 30.0563 33.5536 29.5189 33.5536 28.9586V10.9527C33.5818 10.3514 33.4405 9.75456 33.147 9.23477C32.8534 8.71497 32.4203 8.29458 31.9001 8.0247C31.3799 7.75482 30.7951 7.64707 30.2169 7.71455C29.6386 7.78203 29.0917 8.02184 28.6428 8.40481Z" fill="black"/>
</svg>
