<svg width="37" height="38" viewBox="0 0 37 38" fill="none" xmlns="http://www.w3.org/2000/svg">
<path d="M26.1939 12.8566C27.0896 12.8566 27.8158 12.1054 27.8158 11.1788C27.8158 10.2521 27.0896 9.50092 26.1939 9.50092C25.2981 9.50092 24.5719 10.2521 24.5719 11.1788C24.5719 12.1054 25.2981 12.8566 26.1939 12.8566Z" fill="black"/>
<path d="M18.9785 11.463C17.6058 11.463 16.2639 11.8841 15.1225 12.673C13.9812 13.462 13.0916 14.5833 12.5663 15.8952C12.041 17.2072 11.9035 18.6508 12.1713 20.0436C12.4391 21.4363 13.1001 22.7156 14.0708 23.7197C15.0414 24.7239 16.2781 25.4077 17.6244 25.6847C18.9708 25.9617 20.3663 25.8196 21.6345 25.2761C22.9027 24.7327 23.9867 23.8125 24.7493 22.6317C25.5119 21.451 25.919 20.0629 25.919 18.6428C25.919 16.7386 25.1877 14.9124 23.8861 13.5659C22.5845 12.2195 20.8192 11.463 18.9785 11.463ZM18.9785 23.3036C18.0874 23.3036 17.2163 23.0302 16.4754 22.5181C15.7345 22.006 15.1571 21.2781 14.8161 20.4264C14.4751 19.5748 14.3858 18.6377 14.5597 17.7336C14.7335 16.8295 15.1626 15.999 15.7927 15.3472C16.4228 14.6954 17.2256 14.2515 18.0995 14.0717C18.9735 13.8918 19.8793 13.9841 20.7026 14.3369C21.5258 14.6897 22.2295 15.287 22.7245 16.0535C23.2196 16.8199 23.4838 17.721 23.4838 18.6428C23.4838 19.8789 23.0092 21.0644 22.1642 21.9385C21.3193 22.8125 20.1734 23.3036 18.9785 23.3036Z" fill="black"/>
<path d="M18.9785 7.17982C22.5873 7.17982 23.0153 7.1938 24.4401 7.26138C25.2971 7.27191 26.1459 7.43468 26.9496 7.7426C27.5327 7.97528 28.0622 8.33165 28.5041 8.78879C28.946 9.24593 29.2905 9.79371 29.5154 10.3969C29.8131 11.2283 29.9704 12.1064 29.9806 12.9929C30.0459 14.4668 30.0594 14.9096 30.0594 18.644C30.0594 22.3784 30.0459 22.8188 29.9806 24.2928C29.9704 25.1793 29.8131 26.0574 29.5154 26.8888C29.2905 27.492 28.946 28.0398 28.5041 28.4969C28.0622 28.954 27.5327 29.3104 26.9496 29.5431C26.1459 29.851 25.2971 30.0138 24.4401 30.0243C23.0153 30.0919 22.5873 30.1059 18.9785 30.1059C15.3697 30.1059 14.9417 30.0919 13.5169 30.0243C12.6599 30.0138 11.8111 29.851 11.0074 29.5431C10.4243 29.3104 9.89482 28.954 9.45292 28.4969C9.01102 28.0398 8.66652 27.492 8.4416 26.8888C8.14394 26.0574 7.9866 25.1793 7.97642 24.2928C7.91109 22.8188 7.89758 22.3761 7.89758 18.6428C7.89758 14.9096 7.91109 14.4668 7.97642 12.9929C7.9866 12.1064 8.14394 11.2283 8.4416 10.3969C8.66652 9.79371 9.01102 9.24593 9.45292 8.78879C9.89482 8.33165 10.4243 7.97528 11.0074 7.7426C11.8111 7.43468 12.6599 7.27191 13.5169 7.26138C14.9417 7.1938 15.3697 7.17982 18.9785 7.17982ZM18.9785 4.66071C15.3078 4.66071 14.8471 4.67702 13.4054 4.7446C12.2844 4.76801 11.1754 4.98785 10.1255 5.39477C9.22747 5.75399 8.41193 6.30335 7.73113 7.00763C7.05032 7.71191 6.51927 8.55558 6.17203 9.48455C5.77855 10.571 5.56604 11.7187 5.54353 12.8787C5.4782 14.3701 5.46243 14.8444 5.46243 18.6428C5.46243 22.4413 5.4782 22.9167 5.54353 24.4082C5.56616 25.5678 5.77867 26.715 6.17203 27.8012C6.51927 28.7301 7.05032 29.5738 7.73113 30.2781C8.41193 30.9823 9.22747 31.5317 10.1255 31.8909C11.1758 32.298 12.2852 32.5178 13.4065 32.5411C14.8482 32.6087 15.3078 32.625 18.9785 32.625C22.6492 32.625 23.1099 32.6087 24.5516 32.5411C25.673 32.5178 26.7824 32.298 27.8327 31.8909C28.7307 31.5317 29.5462 30.9823 30.227 30.2781C30.9078 29.5738 31.4389 28.7301 31.7861 27.8012C32.1792 26.7146 32.3913 25.5669 32.4135 24.407C32.4788 22.9156 32.4946 22.4413 32.4946 18.6428C32.4946 14.8444 32.4788 14.369 32.4135 12.8775C32.3908 11.7179 32.1783 10.5707 31.785 9.48455C31.4377 8.55558 30.9067 7.71191 30.2259 7.00763C29.5451 6.30335 28.7295 5.75399 27.8315 5.39477C26.7812 4.98812 25.6718 4.76867 24.5505 4.74576C23.1088 4.67585 22.6504 4.66071 18.9785 4.66071Z" fill="black"/>
</svg>
