<svg width="29" height="31" viewBox="0 0 29 31" fill="none" xmlns="http://www.w3.org/2000/svg">
<g clip-path="url(#clip0_18_38)">
<path d="M0 2.86505C0 1.68496 0.939755 0.728577 2.09926 0.728577H26.4865C27.646 0.728577 28.5857 1.68496 28.5857 2.86505V28.4207C28.5857 29.6008 27.646 30.5571 26.4865 30.5571H2.09926C0.939755 30.5571 0 29.6008 0 28.4207V2.86505ZM8.8312 25.6988V12.2294H4.54156V25.6988H8.8312ZM6.68727 10.3893C8.18266 10.3893 9.11348 9.35649 9.11348 8.06268C9.08668 6.7409 8.18445 5.73605 6.71586 5.73605C5.24727 5.73605 4.28786 6.74276 4.28786 8.06268C4.28786 9.35649 5.21868 10.3893 6.65868 10.3893H6.68727ZM15.4559 25.6988V18.1764C15.4559 17.7737 15.4845 17.3711 15.5989 17.084C15.9079 16.2804 16.6137 15.4471 17.8 15.4471C19.3525 15.4471 19.9725 16.6813 19.9725 18.4934V25.6988H24.2621V17.9732C24.2621 13.8345 22.1468 11.9106 19.3239 11.9106C17.0478 11.9106 16.0277 13.2156 15.4559 14.1347V14.1813H15.4274C15.4368 14.1657 15.4464 14.1502 15.4559 14.1347V12.2294H11.1681C11.2217 13.4933 11.1681 25.6988 11.1681 25.6988H15.4559Z" fill="black"/>
</g>
<defs>
<clipPath id="clip0_18_38">
<rect width="28.5857" height="29.8286" fill="white" transform="translate(0 0.728577)"/>
</clipPath>
</defs>
</svg>
