<svg width="34" height="35" viewBox="0 0 34 35" fill="none" xmlns="http://www.w3.org/2000/svg">
<path d="M32.7621 7.38875C31.6379 7.90609 30.4301 8.25564 29.1604 8.41364C30.4705 7.59959 31.4506 6.31837 31.9179 4.80904C30.6871 5.56826 29.34 6.10266 27.9352 6.38902C26.9905 5.34157 25.7392 4.64731 24.3757 4.41401C23.0121 4.18072 21.6125 4.42145 20.3942 5.09883C19.1758 5.77621 18.2069 6.85234 17.6379 8.16015C17.0689 9.46796 16.9315 10.9343 17.2472 12.3314C14.7532 12.2014 12.3134 11.5282 10.0862 10.3556C7.85889 9.18302 5.89394 7.53718 4.31883 5.52493C3.78026 6.4897 3.47058 7.60827 3.47058 8.79955C3.46998 9.87197 3.72429 10.928 4.21095 11.8738C4.69761 12.8197 5.40157 13.6262 6.26038 14.2218C5.26439 14.1889 4.29038 13.9094 3.41941 13.4067V13.4906C3.41931 14.9947 3.92033 16.4525 4.83745 17.6167C5.75457 18.7809 7.0313 19.5797 8.45102 19.8776C7.52708 20.1373 6.55839 20.1755 5.61813 19.9895C6.01869 21.2837 6.79894 22.4154 7.84966 23.2262C8.90037 24.037 10.1689 24.4864 11.4778 24.5113C9.25596 26.3225 6.51201 27.305 3.68735 27.3007C3.18699 27.3009 2.68706 27.2705 2.19012 27.2098C5.05731 29.1242 8.39493 30.1402 11.8036 30.1363C23.3425 30.1363 29.6505 20.2118 29.6505 11.6044C29.6505 11.3247 29.6438 11.0423 29.6317 10.7626C30.8587 9.84118 31.9178 8.70013 32.7594 7.39294L32.7621 7.38875Z" fill="black"/>
</svg>
